<svg xmlns="http://www.w3.org/2000/svg" aria-hidden="true" viewBox="0 0 384 512">
    <symbol id="icon" viewBox="0 0 384 512">
        <path fill="currentColor"
            d="M24 0C10.7 0 0 10.7 0 24v464c0 13.3 10.7 24 24 24h336c13.3 0 24-10.7 24-24V160H248c-13.2 0-24-10.8-24-24V0H24zm232 0v128h128v-6.09961c0-6.3-2.5-12.40039-7-16.90039L279.09961 7c-4.5-4.5-10.6-7-17-7H256zM130.84766 232c4.02437 0 8.04718 1.53547 11.11718 4.60547L192 286.64062l50.03516-50.03515c6.145-6.14 16.10023-6.14 22.24023 0l11.11914 11.11914c6.14 6.145 6.14 16.10023 0 22.24023L225.35938 320l50.03515 50.03516c6.14 6.145 6.14 16.10023 0 22.24023l-11.11914 11.11914c-6.14 6.14-16.10023 6.14-22.24023 0L192 353.35938l-50.03516 50.03515c-6.14 6.14-16.10023 6.14-22.24023 0l-11.11914-11.11914c-6.14-6.145-6.14-16.10023 0-22.24023L158.64062 320l-50.03515-50.03516c-6.14-6.145-6.14-16.10023 0-22.24023l11.11914-11.11914c3.0725-3.07 7.09867-4.60547 11.12305-4.60547z" />
    </symbol>
</svg>
