<svg xmlns="http://www.w3.org/2000/svg" aria-hidden="true" viewBox="0 0 384 512">
    <symbol id="icon" viewBox="0 0 384 512">
        <path fill="currentColor"
            d="M24 0C10.7 0 0 10.7 0 24v464c0 13.3 10.7 24 24 24h336c13.3 0 24-10.7 24-24V160H248c-13.2 0-24-10.8-24-24V0H24zm232 0v128h128v-6.09961c0-6.3-2.5-12.40039-7-16.90039L279.09961 7c-4.5-4.5-10.6-7-17-7H256zm33.09766 224.54883c3.27587 0 6.55348 1.25075 9.05273 3.75l18.10156 18.10156c4.9985 4.9985 4.9985 13.10256 0 18.10156L169.05078 411.70312c-4.999 4.99851-13.10306 4.99705-18.10156-.00195l-83.201173-83.19922c-4.9985-4.9985-4.9985-13.10256 0-18.10156l18.101562-18.10156c4.9985-4.999 13.105016-4.999 18.103511 0L160 348.3457l120.04688-120.04687c2.49925-2.49925 5.7749-3.75 9.05078-3.75z" />
    </symbol>
</svg>
